<svg id="Calque_1" data-name="Calque 1" xmlns="http://www.w3.org/2000/svg" viewBox="0 0 3872.98 3872.98"><defs><style>.cls-1,.cls-2{fill:#fff;}.cls-2,.cls-5{fill-rule:evenodd;}.cls-3{isolation:isolate;font-size:5px;font-family:Arial-BoldMT, Arial;font-weight:700;}.cls-4{fill:#224a65;}.cls-5{fill:#2bb673;}.cls-6{fill:#ffcc18;}</style></defs><rect class="cls-1" x="1340.31" y="2521.03" width="1581.39" height="240.87"/><path class="cls-2" d="M3223,489h0q-70.59-62.78-147.16-118.6h0C2756.13,137.45,2362.43,0,1936.61,0c-422.4,0-813.22,135.25-1131.5,364.81q-29.75,21.45-58.62,44H927.93V2900.56h-77a453.15,453.15,0,0,0-319.87,131.6V604.46q-22.39,23.63-44,48C184.15,994.19.23,1443.81.23,1936.38c0,502.44,191.36,960.18,505.19,1304.32q17.2,18.9,34.95,37.34a320.16,320.16,0,0,1,310.56-242.8H3199.4v252.52H892.18a67.35,67.35,0,0,0,0,134.69H3178.09q25.8-21.55,50.82-44C3624.26,3023.92,3873,2509.2,3873,1936.38,3873,1360.7,3621.77,843.7,3223,489ZM3149,459.36A170.85,170.85,0,0,1,3199.4,581V2900.56H1062.61V408.81h625v1598l248.91-230.4,248.91,230.4v-1598h820V409h22A170.89,170.89,0,0,1,3149,459.36ZM1083.09,3675q47.29,23.28,96,44c232.67,99,488.7,153.78,757.51,153.78S2461.44,3818,2694.11,3719q48.7-20.71,96-44Z"/><text class="cls-3" transform="translate(0 3403.86)">Created by Graphixs_Art</text><text class="cls-3" transform="translate(0 3408.86)">from the Noun Project</text><path class="cls-4" d="M892.18,3331.76H3243.4V2991.24H850.93a364.2,364.2,0,0,0-335.26,222.22q-5.68,13.45-10.25,27.24A363.76,363.76,0,0,0,850.93,3719H3243.4V3378.45H892.18a23.35,23.35,0,0,1,0-46.69Zm0,90.69H3199.4V3675H850.93A319.86,319.86,0,0,1,531.07,3355.1a321.73,321.73,0,0,1,9.3-77.06,320.16,320.16,0,0,1,310.56-242.8H3199.4v252.52H892.18a67.35,67.35,0,0,0,0,134.69Z"/><path class="cls-1" d="M824.84,3355.1a67.42,67.42,0,0,0,67.34,67.35H3199.4V3675H850.93A319.86,319.86,0,0,1,531.07,3355.1a321.73,321.73,0,0,1,9.3-77.06,320.16,320.16,0,0,1,310.56-242.8H3199.4v252.52H892.18A67.42,67.42,0,0,0,824.84,3355.1Z"/><path class="cls-4" d="M681.06,364.81v1.28a216,216,0,0,0-194,214.9V3154.33l39.38-50.74a413.06,413.06,0,0,1,34.19-38.78c77.54-77.55,180.64-120.25,290.3-120.25h121V364.81ZM927.93,2900.56h-77a453.15,453.15,0,0,0-319.87,131.6V581a172,172,0,0,1,172-172h22v-.18H927.93Z"/><path class="cls-1" d="M927.93,408.81V2900.56h-77a453.15,453.15,0,0,0-319.87,131.6V581a172,172,0,0,1,172-172h22v-.18Z"/><path class="cls-4" d="M3223,489h0a217,217,0,0,0-147.16-118.6h0a216.81,216.81,0,0,0-26.4-4.31v-1.27H1018.61V2944.56H3243.4V581A215.38,215.38,0,0,0,3223,489ZM3199.4,2900.56H1062.61V408.81H3005.4V409h22a172,172,0,0,1,172,172Z"/><path class="cls-1" d="M3149,459.36A170.89,170.89,0,0,0,3027.4,409h-22v-.17h-820v1598l-248.91-230.4-248.91,230.4v-1598h-625V2900.56H3199.4V581A170.85,170.85,0,0,0,3149,459.36ZM2921.7,2761.9H1340.31V2521H2921.7Z"/><polygon class="cls-5" points="2185.4 364.81 2185.4 2006.81 1936.49 1776.41 1687.58 2006.81 1687.58 364.81 2185.4 364.81"/><rect class="cls-6" x="1340.31" y="2521.03" width="1581.39" height="240.87"/></svg>